<svg width="480" height="480" viewBox="0 0 480 480" fill="none" xmlns="http://www.w3.org/2000/svg">
<path fill-rule="evenodd" clip-rule="evenodd" d="M199.6 97.6C219.3 85.84 229.16 80 240 80C250.84 80 260.7 85.86 280.4 97.6L339.6 132.76C353.7 141.16 362.76 146.54 368.76 152.46L431.28 107.8C432.879 106.6 434.702 105.732 436.641 105.246C438.58 104.761 440.597 104.668 442.573 104.973C444.549 105.278 446.444 105.975 448.146 107.023C449.849 108.071 451.325 109.448 452.487 111.075C453.65 112.701 454.475 114.544 454.915 116.494C455.356 118.444 455.402 120.462 455.051 122.43C454.7 124.399 453.959 126.277 452.872 127.954C451.785 129.632 450.373 131.076 448.72 132.2L379.64 181.54C380 187.82 380 195.38 380 204.82V275.18C380 298.62 380 310.34 374.6 320C369.18 329.66 359.3 335.52 339.6 347.24L280.4 382.42C260.7 394.14 250.82 400 240 400C229.18 400 219.32 394.14 199.6 382.4L140.4 347.24C127.7 339.68 119.08 334.56 113.12 329.28L48.32 372.48C46.6817 373.598 44.8378 374.381 42.895 374.782C40.9522 375.183 38.9493 375.194 37.002 374.816C35.0547 374.438 33.2018 373.677 31.5505 372.578C29.8992 371.478 28.4824 370.063 27.382 368.412C26.2817 366.761 25.5196 364.909 25.14 362.962C24.7604 361.015 24.7708 359.012 25.1705 357.069C25.5702 355.126 26.3514 353.281 27.4687 351.642C28.5861 350.003 30.0175 348.602 31.68 347.52L100.58 301.58C100 294.74 100 286.28 100 275.2V204.8C100 193.72 100 185.26 100.58 178.4L31.68 132.46C28.418 130.233 26.1659 126.809 25.4126 122.932C24.6593 119.055 25.4656 115.037 27.6565 111.751C29.8474 108.465 33.246 106.175 37.1147 105.379C40.9833 104.583 45.0098 105.345 48.32 107.5L113.12 150.7C119.08 145.42 127.7 140.3 140.42 132.74L199.6 97.6Z" fill="#4B32C3"/>
<path fill-rule="evenodd" clip-rule="evenodd" d="M278.714 317.387C303.344 303.167 344.355 260.413 311.328 203.209C291.121 168.21 255.111 155.145 226.146 151.669C211.295 149.866 202.676 165.604 210.002 178.294C214.956 186.874 220.757 202.523 220.119 216.963C219.377 233.865 200.17 230.652 189.815 217.462C184.616 210.857 174.963 212.458 171.179 220.17C163.72 235.33 158.784 258.995 172.764 283.209C205.791 340.413 257.156 329.833 278.714 317.387ZM282.348 227.254C284.929 226.647 287.645 227.089 289.899 228.484C292.154 229.879 293.763 232.112 294.371 234.692C297.25 246.825 295.283 273.179 268.333 288.739C266.036 290.065 263.306 290.425 260.745 289.738C258.183 289.052 255.999 287.376 254.673 285.079C253.346 282.782 252.987 280.053 253.674 277.491C254.36 274.929 256.036 272.745 258.333 271.419C275.723 261.379 276.306 245.215 274.91 239.278C274.302 236.697 274.745 233.981 276.14 231.726C277.535 229.471 279.768 227.863 282.348 227.254Z" fill="white"/>
</svg>
